<?xml version="1.0" encoding="UTF-8"?>
<svg id="_图层_2" data-name="图层 2" xmlns="http://www.w3.org/2000/svg" viewBox="0 0 196.33 152.41">
  <defs>
    <style>
      .cls-1 {
        fill: #fff;
      }

      .cls-2 {
        fill: #606060;
      }

      .cls-3 {
        fill: #4f8bae;
      }
    </style>
  </defs>
  <g id="_图层_1-2" data-name="图层 1">
    <g>
      <g>
        <path class="cls-3" d="m118.19,150.91c-42.26,0-76.65-27.55-76.65-61.41,0-16.71,8.22-32.3,23.15-43.96.1-.37.21-.68.33-.92-1.77-23.01,2.54-29.79,3.72-31.2.62-1.33,1.41-1.95,2.04-2.23,1.36-2.55,2.77-3.8,4.31-3.8.4,0,.72.09.94.19,17.35,5,26.33,15.1,30.15,20.68.12.18.23.36.31.55,3.91-.48,7.84-.73,11.69-.73s7.77.24,11.68.73c.07-.13.14-.25.22-.37,3.79-5.6,12.71-15.75,30.04-20.84.23-.1.55-.2.96-.2,1.54,0,2.95,1.24,4.32,3.78.64.28,1.42.9,2.05,2.22,1.19,1.39,5.53,8.16,3.89,31.18.12.24.24.56.34.95,14.93,11.66,23.15,27.25,23.15,43.96,0,13.93-5.97,27.54-16.82,38.38v15.67c0,1.59-.62,3.07-1.75,4.18-1.11,1.08-2.56,1.68-4.09,1.68h0c-.57,0-1.14-.08-1.69-.25l-17.06-5.12c-10.82,4.49-22.99,6.86-35.23,6.86ZM71.14,18.83c-.68,4.07-2.24,14.46-2.19,23.61.76-.51,1.54-1.02,2.33-1.51-.34-1.8-.12-2.99.1-3.63-.05-1.15.16-2.06.54-2.77-.36-.76-.2-1.64.48-2.64,1.06-1.57,3.64-2.52,5.59-3.04-.19-.4-.19-.86,0-1.27.22-.48.68-.81,1.2-.86.39-.04.78-.06,1.19-.06,1.77,0,3.64.38,5.19.82-2.78-5.22-6.62-10.95-11.24-14.13-.59.91-1.3,2.37-1.08,3.9.08.52-.13,1.05-.54,1.38-.27.22-.6.33-.94.33-.18,0-.35-.03-.52-.09l-.09-.03Zm93.93,22.08c.79.49,1.57.99,2.34,1.51,0-9.15-1.61-19.53-2.31-23.59l-.09.03c-.17.07-.35.1-.53.1-.33,0-.67-.11-.94-.33-.41-.33-.62-.85-.55-1.38.21-1.53-.5-2.98-1.1-3.89-4.61,3.2-8.41,8.95-11.17,14.19,1.57-.45,3.46-.84,5.25-.84.38,0,.75.02,1.12.06.52.05.98.38,1.21.86.19.4.19.87,0,1.27,1.95.51,4.54,1.45,5.61,3.02.68.99.85,1.88.49,2.63.38.71.6,1.62.55,2.77.22.63.45,1.81.12,3.6Z"/>
        <path class="cls-1" d="m75.09,8.89c.26,0,.41.1.41.1,16.99,4.86,25.75,14.72,29.45,20.12.29.43.42.9.43,1.37,4.17-.57,8.44-.89,12.81-.89s8.59.31,12.73.87c.04-.4.17-.81.42-1.18,3.67-5.43,12.37-15.33,29.34-20.28,0,0,.14-.1.41-.1.59,0,1.76.48,3.29,3.55,0,0,0,0,.01,0,.11,0,1.05.05,1.81,1.79,0,0,5.51,5.23,3.62,30.68,0,0,.37.49.51,1.45,14.18,10.9,23.01,26.18,23.01,43.12,0,14.32-6.31,27.45-16.82,37.76v16.29c0,2.48-2.03,4.36-4.35,4.36-.41,0-.84-.06-1.26-.19l-17.58-5.27c-10.49,4.43-22.45,6.96-35.14,6.96-41.5,0-75.14-26.82-75.14-59.91,0-16.94,8.83-32.22,23.01-43.12.14-.95.5-1.43.5-1.43-2.02-25.43,3.46-30.69,3.46-30.69.75-1.75,1.69-1.8,1.8-1.8,0,0,0,0,0,0,1.51-3.08,2.69-3.56,3.27-3.56m-3.34,8.56l-1.78-.67s-3.02,16.06-2.45,28.47c1.75-1.28,3.58-2.48,5.48-3.62-.82-2.85-.09-4.09-.09-4.09-.26-2.63,1.17-3.26,1.66-3.4-.14.02-.34.05-.54.05-.59,0-1.21-.23-.37-1.46,1.34-1.98,6.82-2.89,6.82-2.89l-1.12-1.63c.33-.04.68-.05,1.02-.05,3.74,0,8.07,1.91,8.07,1.91.05.02.1.05.14.07-3.18-6.69-8.2-15.06-14.62-18.79,0,0-2.69,2.8-2.21,6.11m75.96,12.77s.09-.05.14-.08c0,0,4.37-1.95,8.12-1.95.33,0,.65.01.97.05l-1.11,1.64s5.49.88,6.84,2.86c.85,1.23.21,1.46-.38,1.46-.2,0-.4-.03-.53-.05.49.14,1.92.76,1.67,3.39,0,0,.73,1.23-.06,4.07,1.9,1.14,3.73,2.35,5.49,3.63.5-12.42-2.6-28.47-2.6-28.47l-1.78.68c.46-3.31-2.24-6.1-2.24-6.1-6.4,3.77-11.37,12.16-14.52,18.87M75.09,5.89h0c-2.71,0-4.5,2.52-5.43,4.19-.75.45-1.55,1.22-2.2,2.53-1.64,2.07-5.63,9.52-3.97,31.75-.04.09-.07.19-.1.29-15.07,11.92-23.35,27.8-23.35,44.85s8.22,32.81,23.14,44.71c14.72,11.74,34.26,18.2,55.01,18.2,12.25,0,24.43-2.34,35.31-6.77l16.55,4.97c.69.21,1.41.31,2.12.31,4.05,0,7.35-3.3,7.35-7.36v-15.05c10.85-11.06,16.82-24.86,16.82-39,0-17.04-8.28-32.93-23.35-44.85-.04-.12-.08-.22-.12-.33,1.54-22.24-2.49-29.67-4.14-31.73-.66-1.3-1.46-2.07-2.21-2.51-.94-1.66-2.72-4.17-5.43-4.17-.6,0-1.09.13-1.47.28-17.32,5.11-26.47,15.19-30.5,21.02-3.66-.42-7.33-.63-10.93-.63s-7.25.21-10.91.62c-4-5.78-13.21-15.97-30.74-21.05-.37-.15-.86-.27-1.44-.27h0Zm-2.69,14.49c.44-.1.87-.3,1.23-.59.83-.66,1.24-1.72,1.09-2.76-.07-.47,0-.95.14-1.39,2.99,2.48,5.61,6.06,7.77,9.68-.74-.1-1.5-.16-2.25-.16-.46,0-.92.02-1.35.07-1.05.11-1.96.77-2.4,1.73-.12.26-.2.52-.24.79-2,.65-4.14,1.69-5.23,3.31-.05.07-.1.14-.14.21.42-4.39.98-8.32,1.39-10.89h0Zm81.23,4.99c2.14-3.63,4.74-7.22,7.72-9.72.14.45.21.93.15,1.39-.15,1.05.27,2.1,1.1,2.76.37.29.79.49,1.23.59.42,2.56,1,6.49,1.44,10.88-.05-.07-.09-.15-.15-.22-1.09-1.6-3.24-2.63-5.24-3.27-.04-.27-.12-.54-.24-.79-.45-.96-1.36-1.61-2.41-1.72-.41-.04-.84-.06-1.27-.06-.77,0-1.56.07-2.33.17h0Z"/>
      </g>
      <g>
        <path class="cls-2" d="m43.35,150.91c-5.31,0-10.59-1.01-15.31-2.92l-7.11,2.13c-.32.1-.65.14-.98.14-1.87,0-3.38-1.52-3.38-3.39v-6.44c-4.71-4.82-7.29-10.83-7.29-16.99,0-15.14,15.28-27.46,34.07-27.46s34.07,12.32,34.07,27.46-15.28,27.46-34.07,27.46Z"/>
        <path class="cls-1" d="m43.35,97.48c17.99,0,32.57,11.62,32.57,25.96s-14.58,25.96-32.57,25.96c-5.5,0-10.69-1.09-15.23-3.01l-7.62,2.29c-.18.05-.37.08-.55.08-1.01,0-1.88-.82-1.88-1.89v-7.06c-4.55-4.47-7.29-10.16-7.29-16.36,0-14.34,14.58-25.96,32.57-25.96m0-3c-19.61,0-35.57,12.99-35.57,28.96,0,6.36,2.58,12.56,7.29,17.59v5.84c0,2.7,2.19,4.89,4.88,4.89.48,0,.95-.07,1.41-.21l6.61-1.98c4.77,1.86,10.07,2.84,15.38,2.84,19.61,0,35.57-12.99,35.57-28.96s-15.96-28.96-35.57-28.96h0Z"/>
      </g>
      <g>
        <path class="cls-2" d="m44.49,60.28c-.62,0-1.22-.13-1.78-.38l-26.58-11.78c-1.19-.53-2.09-1.55-2.45-2.81-.36-1.25-.15-2.6.58-3.68l6.31-9.39c.82-1.22,2.19-1.95,3.66-1.95,1.01,0,2.01.35,2.79,1l22.23,18.24c1.77,1.45,2.14,3.97.86,5.86l-1.97,2.93c-.82,1.22-2.19,1.95-3.66,1.95Z"/>
        <path class="cls-1" d="m24.23,31.79c.65,0,1.3.21,1.84.66l22.23,18.24c1.16.95,1.4,2.63.57,3.87l-1.97,2.93c-.55.82-1.47,1.29-2.41,1.29-.4,0-.8-.08-1.18-.25l-26.58-11.78c-1.65-.73-2.24-2.78-1.23-4.28l6.31-9.39c.56-.84,1.48-1.29,2.42-1.29m0-3h0c-1.97,0-3.81.98-4.91,2.61l-6.31,9.39c-.98,1.45-1.26,3.25-.77,4.93s1.68,3.05,3.28,3.76l26.58,11.78c.76.34,1.56.51,2.39.51,1.97,0,3.8-.98,4.9-2.61l1.97-2.93c1.71-2.54,1.21-5.92-1.16-7.86l-22.23-18.24c-1.05-.86-2.38-1.34-3.74-1.34h0Z"/>
      </g>
      <g>
        <path class="cls-3" d="m8.85,87.06c-1.99,0-3.74-1.34-4.26-3.26l-2.94-10.93c-.32-1.2-.12-2.48.54-3.52s1.75-1.76,2.97-1.97l28.36-4.8c.25-.04.49-.06.74-.06,1.99,0,3.74,1.34,4.25,3.26l.92,3.41c.56,2.07-.45,4.23-2.39,5.14l-26.33,12.32c-.59.28-1.22.42-1.87.42Z"/>
        <path class="cls-1" d="m34.26,64.01c1.29,0,2.46.86,2.8,2.15l.92,3.41c.37,1.36-.3,2.79-1.57,3.39l-26.33,12.32c-.4.19-.82.28-1.23.28-1.27,0-2.45-.83-2.81-2.15l-2.94-10.93c-.45-1.66.63-3.34,2.32-3.62l28.36-4.8c.16-.03.33-.04.49-.04m0-3h0c-.33,0-.66.03-.99.08l-28.36,4.8c-1.64.28-3.09,1.24-3.99,2.64-.9,1.4-1.16,3.12-.73,4.72l2.94,10.93c.69,2.57,3.04,4.37,5.71,4.37.87,0,1.71-.19,2.5-.56l26.33-12.32c2.6-1.22,3.95-4.11,3.2-6.89l-.92-3.41c-.69-2.57-3.04-4.37-5.7-4.37h0Z"/>
      </g>
      <path class="cls-1" d="m137.13,0s-48.95,11.07-17.05,34.77c0,0-15.95-23.7,17.05-34.77Z"/>
      <g>
        <path class="cls-1" d="m99.19,69.09c4.71-1.23,11.04-2.39,18.54-2.43,7.93-.05,14.59,1.16,19.46,2.43.03,1.2.11,9.43-6.29,14.81-2.8,2.36-6.86,4.04-12.71,4.04-19.61,0-19-18.85-19-18.85Z"/>
        <polygon class="cls-3" points="128.27 64.22 130.08 70.87 133.74 64.22 128.27 64.22"/>
        <polygon class="cls-3" points="107.95 64.22 106.13 70.87 102.47 64.22 107.95 64.22"/>
      </g>
    </g>
  </g>
</svg>