<?xml version="1.0" encoding="UTF-8"?>
<svg id="_图层_2" data-name="图层 2" xmlns="http://www.w3.org/2000/svg" viewBox="0 0 152.85 146.51">
  <defs>
    <style>
      .cls-1 {
        fill: #fff;
      }

      .cls-2 {
        fill: #606060;
      }

      .cls-3 {
        fill: #4f8bae;
      }
    </style>
  </defs>
  <g id="_图层_1-2" data-name="图层 1">
    <g>
      <g>
        <path class="cls-3" d="m76.42,111.98c-35.03,0-63.53-21.23-63.53-47.32,0-12.89,6.8-24.9,19.16-33.87.06-.21.14-.39.21-.54-1.42-17.39,2.08-22.79,3.14-24.01.53-1.03,1.18-1.53,1.73-1.78,1.15-1.96,2.4-2.96,3.71-2.96.35,0,.63.07.84.16,14.38,3.84,21.84,11.62,25.01,15.92.07.1.14.2.2.3,3.19-.36,6.39-.54,9.53-.54s6.34.18,9.54.54c.03-.05.07-.11.11-.16,3.14-4.31,10.56-12.13,24.92-16.04.21-.08.5-.16.85-.16,1.31,0,2.56.99,3.72,2.95.56.25,1.2.75,1.73,1.76,1.08,1.21,4.61,6.59,3.28,23.99.08.16.15.35.22.57,12.36,8.98,19.16,20.99,19.16,33.87,0,10.72-4.92,21.19-13.88,29.54v11.81c0,1.33-.56,2.57-1.57,3.49-.96.87-2.21,1.35-3.52,1.35h0c-.48,0-.97-.07-1.44-.2l-14.03-3.9c-8.94,3.43-18.99,5.24-29.09,5.24ZM37.78,11.02c-.57,3.22-1.71,10.51-1.74,17.09.45-.27.9-.54,1.36-.81-.21-1.24-.05-2.11.12-2.63-.03-.83.13-1.52.4-2.07-.25-.68-.08-1.44.52-2.25.87-1.19,2.82-1.93,4.44-2.36-.04-.28,0-.56.11-.83.22-.49.68-.83,1.22-.89.32-.03.66-.05.99-.05,1.23,0,2.52.2,3.65.47-2.2-3.7-5.12-7.6-8.59-9.87-.42.64-.84,1.55-.69,2.49.08.52-.12,1.04-.52,1.38-.27.23-.62.35-.96.35-.1,0-.21-.01-.31-.03Zm77.64,16.27c.46.27.91.54,1.36.81-.06-6.58-1.25-13.87-1.84-17.08-.11.02-.21.03-.32.03-.34,0-.68-.12-.96-.34-.41-.33-.61-.86-.53-1.38.14-.94-.29-1.85-.71-2.49-3.46,2.29-6.36,6.21-8.54,9.91,1.16-.27,2.46-.48,3.71-.48.32,0,.63.01.94.04.54.05,1,.39,1.23.88.12.26.16.55.12.83,1.62.42,3.58,1.15,4.45,2.34.6.81.77,1.56.53,2.24.28.55.44,1.24.42,2.07.18.52.34,1.38.14,2.62Z"/>
        <path class="cls-1" d="m40.85,3c.22,0,.34.07.34.07,14.03,3.72,21.26,11.26,24.31,15.39.24.33.35.69.35,1.04,3.44-.44,6.97-.68,10.58-.68s7.09.24,10.51.67c.03-.31.14-.62.35-.9,3.03-4.15,10.21-11.72,24.22-15.51,0,0,.12-.08.34-.08.48,0,1.46.37,2.71,2.71,0,0,0,0,0,0,.09,0,.87.04,1.49,1.37,0,0,4.55,4,2.99,23.46,0,0,.3.38.42,1.11,11.7,8.33,18.99,20.03,18.99,32.98,0,10.95-5.21,21-13.88,28.88v12.46c0,1.89-1.67,3.33-3.59,3.33-.34,0-.69-.05-1.04-.14l-14.51-4.03c-8.66,3.39-18.53,5.32-29.01,5.32-34.26,0-62.03-20.52-62.03-45.82,0-12.96,7.29-24.65,18.99-32.98.11-.72.41-1.09.41-1.09-1.67-19.46,2.86-23.48,2.86-23.48.62-1.34,1.4-1.38,1.48-1.38,0,0,0,0,0,0,1.25-2.36,2.22-2.73,2.7-2.73m-2.76,6.55l-1.47-.51s-2.49,12.29-2.02,21.78c1.45-.98,2.95-1.9,4.52-2.77-.68-2.18-.07-3.13-.07-3.13-.21-2.01.96-2.49,1.37-2.6-.11.02-.28.04-.45.04-.49,0-1-.18-.31-1.12,1.1-1.52,5.63-2.21,5.63-2.21l-.92-1.25c.28-.03.56-.04.85-.04,3.08,0,6.66,1.46,6.66,1.46.04.02.08.04.11.06-2.63-5.12-6.77-11.52-12.07-14.38,0,0-2.22,2.14-1.82,4.68m62.7,9.77s.07-.04.11-.06c0,0,3.6-1.49,6.7-1.49.27,0,.54.01.8.04l-.92,1.25s4.53.68,5.64,2.19c.7.94.18,1.12-.31,1.12-.17,0-.33-.02-.44-.04.41.11,1.58.58,1.38,2.6,0,0,.61.94-.05,3.11,1.57.87,3.08,1.8,4.53,2.78.42-9.5-2.15-21.78-2.15-21.78l-1.47.52c.38-2.54-1.85-4.67-1.85-4.67-5.28,2.88-9.39,9.3-11.98,14.43M40.85,0h0c-1.78,0-3.39,1.12-4.78,3.32-.65.39-1.34,1.02-1.91,2.06-.66.8-1.66,2.4-2.46,5.38-1.27,4.72-1.59,11.15-.97,19.13-12.48,9.23-19.34,21.54-19.34,34.76s6.88,25.58,19.39,34.82c12.23,9.03,28.44,14.01,45.64,14.01,10.11,0,20.17-1.78,29.16-5.16l13.55,3.77c.6.17,1.22.25,1.84.25,3.63,0,6.59-2.84,6.59-6.33v-11.16c8.96-8.56,13.88-19.23,13.88-30.19,0-13.23-6.86-25.54-19.35-34.77.58-8,.22-14.43-1.08-19.15-.82-2.98-1.82-4.57-2.49-5.37-.57-1.03-1.27-1.66-1.92-2.05-1.4-2.19-3-3.3-4.78-3.3-.46,0-.91.08-1.32.23-14.17,3.88-21.8,11.49-25.26,16.04-2.96-.3-5.92-.46-8.83-.46s-5.86.15-8.81.46c-3.44-4.52-11.11-12.21-25.46-16.06C41.74.08,41.3,0,40.85,0h0Zm-1.79,12.39c.34-.12.67-.3.95-.54.75-.63,1.14-1.57,1.07-2.54,1.76,1.5,3.36,3.42,4.75,5.43-.21,0-.42-.01-.62-.01-.39,0-.78.02-1.14.06-1.07.11-2.01.78-2.44,1.77-.04.09-.07.17-.1.26-1.19.38-2.4.92-3.33,1.66.28-2.39.61-4.52.87-6.09h0Zm67.85,2.4c1.38-2.02,2.97-3.95,4.72-5.46-.07.96.33,1.91,1.08,2.53.29.24.61.42.95.53.27,1.57.61,3.7.9,6.08-.93-.73-2.14-1.26-3.33-1.64-.03-.09-.06-.18-.1-.26-.44-.98-1.38-1.65-2.45-1.76-.35-.03-.71-.05-1.08-.05-.23,0-.46,0-.69.02h0Z"/>
      </g>
      <path class="cls-1" d="m91.65.06s-39.35,8.25-13.71,25.9c0,0-12.82-17.65,13.71-25.9Z"/>
      <g>
        <path class="cls-1" d="m60.74,49.05c3.89-.94,9.11-1.83,15.31-1.86,6.55-.04,12.04.89,16.06,1.86.03.92.09,7.22-5.19,11.33-2.32,1.8-5.66,3.09-10.49,3.09-16.19,0-15.68-14.42-15.68-14.42Z"/>
        <polygon class="cls-3" points="84.74 45.32 86.24 50.4 89.26 45.32 84.74 45.32"/>
        <polygon class="cls-3" points="67.97 45.32 66.47 50.4 63.45 45.32 67.97 45.32"/>
      </g>
      <g>
        <g>
          <path class="cls-3" d="m126.74,145.01c-4.58,0-8.31-3.5-8.31-7.81v-18.11H34.41v18.11c0,4.31-3.73,7.81-8.31,7.81s-8.31-3.5-8.31-7.81v-18.11h-6.3c-5.51,0-10-4.21-10-9.38s4.49-9.38,10-9.38h129.85c5.51,0,10,4.21,10,9.38s-4.49,9.38-10,9.38h-6.3v18.11c0,4.31-3.73,7.81-8.31,7.81Z"/>
          <path class="cls-1" d="m141.35,101.83c4.67,0,8.5,3.54,8.5,7.88h0c0,4.33-3.82,7.88-8.5,7.88h-7.8s0,.01,0,.02v19.6c0,3.47-3.06,6.31-6.81,6.31s-6.81-2.84-6.81-6.31v-19.6s0-.01,0-.02H32.91s0,.01,0,.02v19.6c0,3.47-3.06,6.31-6.81,6.31s-6.81-2.84-6.81-6.31v-19.6s0-.01,0-.02h-7.8c-4.67,0-8.5-3.54-8.5-7.88h0c0-4.33,3.82-7.88,8.5-7.88h129.85m0-3H11.5c-6.34,0-11.5,4.88-11.5,10.88s5.16,10.88,11.5,10.88h4.8v16.61c0,5.13,4.4,9.31,9.81,9.31s9.81-4.18,9.81-9.31v-16.61h81.02v16.61c0,5.13,4.4,9.31,9.81,9.31s9.81-4.18,9.81-9.31v-16.61h4.8c6.34,0,11.5-4.88,11.5-10.88s-5.16-10.88-11.5-10.88h0Z"/>
        </g>
        <g>
          <rect class="cls-2" x="10.76" y="95.2" width="30.51" height="4.69" rx="1.5" ry="1.5"/>
          <path class="cls-1" d="m39.77,96.7v1.69H12.26v-1.69h27.51m0-3H12.26c-1.66,0-3,1.34-3,3v1.69c0,1.66,1.34,3,3,3h27.51c1.66,0,3-1.34,3-3v-1.69c0-1.66-1.34-3-3-3h0Z"/>
        </g>
        <g>
          <rect class="cls-2" x="10.76" y="90.65" width="30.51" height="4.69" rx="1.5" ry="1.5"/>
          <path class="cls-1" d="m39.77,92.15v1.69H12.26v-1.69h27.51m0-3H12.26c-1.66,0-3,1.34-3,3v1.69c0,1.66,1.34,3,3,3h27.51c1.66,0,3-1.34,3-3v-1.69c0-1.66-1.34-3-3-3h0Z"/>
        </g>
        <g>
          <rect class="cls-2" x="10.76" y="86.11" width="30.51" height="4.69" rx="1.5" ry="1.5"/>
          <path class="cls-1" d="m39.77,87.61v1.69H12.26v-1.69h27.51m0-3H12.26c-1.66,0-3,1.34-3,3v1.69c0,1.66,1.34,3,3,3h27.51c1.66,0,3-1.34,3-3v-1.69c0-1.66-1.34-3-3-3h0Z"/>
        </g>
        <g>
          <path class="cls-2" d="m114.24,99.04c-.83,0-1.5-.67-1.5-1.5v-3.47c0-.83.67-1.5,1.5-1.5h10.29l3.07-5.97c-.72-1.18-.93-2.59-.57-3.91l-.72-.67s-.04.06-.06.09c-.67.97-1.79,1.58-2.92,1.58-.71,0-1.37-.25-1.86-.7l-.72-.67c-.8.27-1.65.41-2.5.41-1.95,0-3.78-.71-5.16-1.99l-.17-.16c-2.04-1.89-2.7-4.71-1.79-7.19l-.63-.58c-.59-.55-.88-1.34-.79-2.18.11-1.02.76-1.98,1.73-2.55,1.63-.97,3.49-1.53,5.39-1.64.2-.09.42-.14.63-.14.05,0,.09,0,.14,0,1.75-1.21,3.82-1.89,5.77-1.89,1.84,0,3.51.61,4.71,1.72l.27.25c2.5,2.32,2.49,6.35.14,9.59l3.09,2.86c.26-.04.52-.06.78-.06,1.03,0,2.03.27,2.9.78,1.25.74,2.13,1.9,2.46,3.26.33,1.38.07,2.8-.75,3.99-.9,1.31-2.34,2.15-3.95,2.33l-1.76,3.41h4.89c.83,0,1.5.67,1.5,1.5v3.47c0,.83-.67,1.5-1.5,1.5h-21.92Zm18.12-15.39c-.18,0-.35.08-.44.2-.04.06-.06.12-.04.18.02.08.08.16.17.21.11.07.22.08.3.08.19,0,.35-.08.44-.2.04-.06.05-.12.04-.18-.02-.08-.08-.16-.17-.21-.09-.05-.19-.08-.3-.08Z"/>
          <path class="cls-1" d="m123.37,65.92c1.42,0,2.73.43,3.69,1.32l.27.25c2.18,2.02,1.81,5.7-.74,8.45,0,.11,0,.22,0,.32l4.54,4.21c.39-.12.81-.19,1.23-.19h0c.76,0,1.5.2,2.14.58.9.53,1.53,1.35,1.76,2.32.23.97.05,1.96-.53,2.79-.74,1.08-2,1.72-3.38,1.72-.09,0-.17-.01-.26-.02l-3.29,6.39h7.35v3.47h-21.92v-3.47h11.21l3.93-7.62c-1.08-1.13-1.33-2.78-.57-4.16l-2.9-2.68c-.24.57-.53,1.12-.9,1.65-.41.59-1.08.93-1.68.93-.32,0-.61-.1-.84-.3l-1.43-1.32c-.86.44-1.83.67-2.82.67-1.57,0-3.04-.56-4.14-1.59l-.18-.16c-1.84-1.71-2.24-4.34-.99-6.45l-1.43-1.33c-.64-.59-.3-1.76.68-2.33,1.58-.93,3.36-1.42,5.13-1.46l.13-.12.13.12s.01,0,.02,0c.07,0,.14,0,.21,0,.04,0,.08,0,.12,0,1.66-1.32,3.63-2.01,5.43-2.01m-5.11,13.45c.44,0,.88-.08,1.29-.21l-5.08-4.71c-.48,1.26-.19,2.72.9,3.72l.18.16c.75.69,1.73,1.04,2.72,1.04m14.1,6.46c.66,0,1.3-.3,1.68-.85.59-.86.31-1.99-.61-2.54-.33-.19-.7-.29-1.06-.29h0c-.66,0-1.3.3-1.68.85-.59.86-.31,1.99.61,2.54.33.19.7.29,1.06.29m-8.99-22.91h0c-2.15,0-4.32.67-6.24,1.91-.21.02-.42.07-.63.14-2.05.16-4.05.79-5.82,1.83-1.38.81-2.3,2.19-2.46,3.68-.14,1.29.3,2.51,1.21,3.39-.63,2.79.25,5.76,2.47,7.82l.18.16c1.66,1.54,3.86,2.39,6.18,2.39.71,0,1.42-.08,2.1-.24l.11.1c.77.71,1.79,1.1,2.87,1.1.71,0,1.42-.17,2.07-.47.07.65.25,1.28.51,1.88l-2.3,4.46h-9.38c-1.66,0-3,1.34-3,3v3.47c0,1.66,1.34,3,3,3h21.92c1.66,0,3-1.34,3-3v-3.47c0-1.66-1.34-3-3-3h-2.43l.29-.56c1.7-.4,3.2-1.39,4.19-2.83,1.06-1.55,1.4-3.39.97-5.19-.42-1.76-1.54-3.26-3.15-4.2-1.1-.65-2.37-.99-3.66-.99-.08,0-.17,0-.25,0l-1.68-1.56c2.04-3.64,1.72-7.87-1.06-10.44l-.27-.25c-1.47-1.37-3.51-2.12-5.73-2.12h0Z"/>
        </g>
      </g>
      <g>
        <path class="cls-2" d="m26.01,103.08c-2.71,0-5.41-.47-7.84-1.35l-3.42.95c-.22.06-.45.09-.68.09-1.36,0-2.46-1.07-2.46-2.39v-2.7c-2.4-2.39-3.72-5.34-3.72-8.38,0-7.6,8.13-13.78,18.12-13.78s18.12,6.18,18.12,13.78-8.13,13.78-18.12,13.78Z"/>
        <path class="cls-1" d="m26.01,77.02c9.18,0,16.62,5.5,16.62,12.28s-7.44,12.28-16.62,12.28c-2.81,0-5.45-.52-7.77-1.43l-3.89,1.08c-.09.03-.19.04-.28.04-.51,0-.96-.39-.96-.89v-3.34c-2.32-2.11-3.72-4.8-3.72-7.74,0-6.78,7.44-12.28,16.62-12.28m0-3c-10.82,0-19.62,6.85-19.62,15.28,0,3.25,1.31,6.4,3.72,8.99v2.09c0,2.15,1.78,3.89,3.96,3.89.37,0,.73-.05,1.08-.15l2.96-.82c2.49.85,5.14,1.28,7.9,1.28,10.82,0,19.62-6.85,19.62-15.28s-8.8-15.28-19.62-15.28h0Z"/>
      </g>
    </g>
  </g>
</svg>